solid OpenSCAD_Model
  facet normal 0.994522 0.104528 0
    outer loop
      vertex 25.25 0 24
      vertex 24.6982 5.24977 5
      vertex 24.6982 5.24977 24
    endloop
  endfacet
  facet normal 0.994522 0.104528 0
    outer loop
      vertex 24.6982 5.24977 5
      vertex 25.25 0 24
      vertex 25.25 0 5
    endloop
  endfacet
  facet normal -0.994522 0.104528 0
    outer loop
      vertex -25.25 0 5
      vertex -24.6982 5.24977 24
      vertex -24.6982 5.24977 5
    endloop
  endfacet
  facet normal -0.994522 0.104528 0
    outer loop
      vertex -24.6982 5.24977 24
      vertex -25.25 0 5
      vertex -25.25 0 24
    endloop
  endfacet
  facet normal 0 1 -0
    outer loop
      vertex 2.63934 25.1117 5
      vertex -2.63934 25.1117 24
      vertex 2.63934 25.1117 24
    endloop
  endfacet
  facet normal 0 1 0
    outer loop
      vertex -2.63934 25.1117 24
      vertex 2.63934 25.1117 5
      vertex -2.63934 25.1117 5
    endloop
  endfacet
  facet normal 0 -1 0
    outer loop
      vertex -2.63934 -25.1117 5
      vertex 2.63934 -25.1117 24
      vertex -2.63934 -25.1117 24
    endloop
  endfacet
  facet normal 0 -1 -0
    outer loop
      vertex 2.63934 -25.1117 24
      vertex -2.63934 -25.1117 5
      vertex 2.63934 -25.1117 5
    endloop
  endfacet
  facet normal 0.587786 0.809017 -0
    outer loop
      vertex 16.8955 18.7644 5
      vertex 12.625 21.8671 24
      vertex 16.8955 18.7644 24
    endloop
  endfacet
  facet normal 0.587786 0.809017 0
    outer loop
      vertex 12.625 21.8671 24
      vertex 16.8955 18.7644 5
      vertex 12.625 21.8671 5
    endloop
  endfacet
  facet normal 0.406736 0.913546 -0
    outer loop
      vertex 12.625 21.8671 5
      vertex 7.80268 24.0142 24
      vertex 12.625 21.8671 24
    endloop
  endfacet
  facet normal 0.406736 0.913546 0
    outer loop
      vertex 7.80268 24.0142 24
      vertex 12.625 21.8671 5
      vertex 7.80268 24.0142 5
    endloop
  endfacet
  facet normal -0.743145 0.669131 0
    outer loop
      vertex -20.4277 14.8416 5
      vertex -16.8955 18.7644 24
      vertex -16.8955 18.7644 5
    endloop
  endfacet
  facet normal -0.743145 0.669131 0
    outer loop
      vertex -16.8955 18.7644 24
      vertex -20.4277 14.8416 5
      vertex -20.4277 14.8416 24
    endloop
  endfacet
  facet normal -0.866025 0.5 0
    outer loop
      vertex -23.067 10.2701 5
      vertex -20.4277 14.8416 24
      vertex -20.4277 14.8416 5
    endloop
  endfacet
  facet normal -0.866025 0.5 0
    outer loop
      vertex -20.4277 14.8416 24
      vertex -23.067 10.2701 5
      vertex -23.067 10.2701 24
    endloop
  endfacet
  facet normal -0.406736 0.913546 0
    outer loop
      vertex -7.80268 24.0142 5
      vertex -12.625 21.8671 24
      vertex -7.80268 24.0142 24
    endloop
  endfacet
  facet normal -0.406736 0.913546 0
    outer loop
      vertex -12.625 21.8671 24
      vertex -7.80268 24.0142 5
      vertex -12.625 21.8671 5
    endloop
  endfacet
  facet normal 0.951056 -0.309017 0
    outer loop
      vertex 23.067 -10.2701 24
      vertex 24.6982 -5.24977 5
      vertex 24.6982 -5.24977 24
    endloop
  endfacet
  facet normal 0.951056 -0.309017 0
    outer loop
      vertex 24.6982 -5.24977 5
      vertex 23.067 -10.2701 24
      vertex 23.067 -10.2701 5
    endloop
  endfacet
  facet normal 0.866025 0.5 0
    outer loop
      vertex 23.067 10.2701 24
      vertex 20.4277 14.8416 5
      vertex 20.4277 14.8416 24
    endloop
  endfacet
  facet normal 0.866025 0.5 0
    outer loop
      vertex 20.4277 14.8416 5
      vertex 23.067 10.2701 24
      vertex 23.067 10.2701 5
    endloop
  endfacet
  facet normal 0.951056 0.309017 0
    outer loop
      vertex 24.6982 5.24977 24
      vertex 23.067 10.2701 5
      vertex 23.067 10.2701 24
    endloop
  endfacet
  facet normal 0.951056 0.309017 0
    outer loop
      vertex 23.067 10.2701 5
      vertex 24.6982 5.24977 24
      vertex 24.6982 5.24977 5
    endloop
  endfacet
  facet normal 0.743145 0.669131 0
    outer loop
      vertex 20.4277 14.8416 24
      vertex 16.8955 18.7644 5
      vertex 16.8955 18.7644 24
    endloop
  endfacet
  facet normal 0.743145 0.669131 0
    outer loop
      vertex 16.8955 18.7644 5
      vertex 20.4277 14.8416 24
      vertex 20.4277 14.8416 5
    endloop
  endfacet
  facet normal 0.207912 0.978148 -0
    outer loop
      vertex 7.80268 24.0142 5
      vertex 2.63934 25.1117 24
      vertex 7.80268 24.0142 24
    endloop
  endfacet
  facet normal 0.207912 0.978148 0
    outer loop
      vertex 2.63934 25.1117 24
      vertex 7.80268 24.0142 5
      vertex 2.63934 25.1117 5
    endloop
  endfacet
  facet normal -0.951056 0.309017 0
    outer loop
      vertex -24.6982 5.24977 5
      vertex -23.067 10.2701 24
      vertex -23.067 10.2701 5
    endloop
  endfacet
  facet normal -0.951056 0.309017 0
    outer loop
      vertex -23.067 10.2701 24
      vertex -24.6982 5.24977 5
      vertex -24.6982 5.24977 24
    endloop
  endfacet
  facet normal 0 0 1
    outer loop
      vertex 24.6982 5.24977 24
      vertex 24.6982 -5.24977 24
      vertex 25.25 0 24
    endloop
  endfacet
  facet normal 0 0 1
    outer loop
      vertex 23.067 10.2701 24
      vertex 24.6982 -5.24977 24
      vertex 24.6982 5.24977 24
    endloop
  endfacet
  facet normal 0 0 1
    outer loop
      vertex 23.067 10.2701 24
      vertex 23.067 -10.2701 24
      vertex 24.6982 -5.24977 24
    endloop
  endfacet
  facet normal 0 0 1
    outer loop
      vertex 20.4277 14.8416 24
      vertex 23.067 -10.2701 24
      vertex 23.067 10.2701 24
    endloop
  endfacet
  facet normal 0 0 1
    outer loop
      vertex 20.4277 14.8416 24
      vertex 20.4277 -14.8416 24
      vertex 23.067 -10.2701 24
    endloop
  endfacet
  facet normal 0 0 1
    outer loop
      vertex 16.8955 18.7644 24
      vertex 20.4277 -14.8416 24
      vertex 20.4277 14.8416 24
    endloop
  endfacet
  facet normal 0 0 1
    outer loop
      vertex 16.8955 18.7644 24
      vertex 16.8955 -18.7644 24
      vertex 20.4277 -14.8416 24
    endloop
  endfacet
  facet normal 0 0 1
    outer loop
      vertex 12.625 21.8671 24
      vertex 16.8955 -18.7644 24
      vertex 16.8955 18.7644 24
    endloop
  endfacet
  facet normal 0 0 1
    outer loop
      vertex 12.625 21.8671 24
      vertex 12.625 -21.8671 24
      vertex 16.8955 -18.7644 24
    endloop
  endfacet
  facet normal 0 0 1
    outer loop
      vertex 7.80268 24.0142 24
      vertex 12.625 -21.8671 24
      vertex 12.625 21.8671 24
    endloop
  endfacet
  facet normal 0 0 1
    outer loop
      vertex 7.80268 24.0142 24
      vertex 7.80268 -24.0142 24
      vertex 12.625 -21.8671 24
    endloop
  endfacet
  facet normal 0 0 1
    outer loop
      vertex 2.63934 25.1117 24
      vertex 7.80268 -24.0142 24
      vertex 7.80268 24.0142 24
    endloop
  endfacet
  facet normal 0 0 1
    outer loop
      vertex 2.63934 25.1117 24
      vertex 2.63934 -25.1117 24
      vertex 7.80268 -24.0142 24
    endloop
  endfacet
  facet normal -0 0 1
    outer loop
      vertex -2.63934 25.1117 24
      vertex 2.63934 -25.1117 24
      vertex 2.63934 25.1117 24
    endloop
  endfacet
  facet normal 0 0 1
    outer loop
      vertex -2.63934 25.1117 24
      vertex -2.63934 -25.1117 24
      vertex 2.63934 -25.1117 24
    endloop
  endfacet
  facet normal -0 0 1
    outer loop
      vertex -7.80268 24.0142 24
      vertex -2.63934 -25.1117 24
      vertex -2.63934 25.1117 24
    endloop
  endfacet
  facet normal 0 0 1
    outer loop
      vertex -7.80268 24.0142 24
      vertex -7.80268 -24.0142 24
      vertex -2.63934 -25.1117 24
    endloop
  endfacet
  facet normal -0 0 1
    outer loop
      vertex -12.625 21.8671 24
      vertex -7.80268 -24.0142 24
      vertex -7.80268 24.0142 24
    endloop
  endfacet
  facet normal 0 0 1
    outer loop
      vertex -12.625 21.8671 24
      vertex -12.625 -21.8671 24
      vertex -7.80268 -24.0142 24
    endloop
  endfacet
  facet normal -0 0 1
    outer loop
      vertex -16.8955 18.7644 24
      vertex -12.625 -21.8671 24
      vertex -12.625 21.8671 24
    endloop
  endfacet
  facet normal 0 0 1
    outer loop
      vertex -16.8955 18.7644 24
      vertex -16.8955 -18.7644 24
      vertex -12.625 -21.8671 24
    endloop
  endfacet
  facet normal -0 0 1
    outer loop
      vertex -20.4277 14.8416 24
      vertex -16.8955 -18.7644 24
      vertex -16.8955 18.7644 24
    endloop
  endfacet
  facet normal 0 0 1
    outer loop
      vertex -20.4277 14.8416 24
      vertex -20.4277 -14.8416 24
      vertex -16.8955 -18.7644 24
    endloop
  endfacet
  facet normal -0 0 1
    outer loop
      vertex -23.067 10.2701 24
      vertex -20.4277 -14.8416 24
      vertex -20.4277 14.8416 24
    endloop
  endfacet
  facet normal 0 0 1
    outer loop
      vertex -23.067 10.2701 24
      vertex -23.067 -10.2701 24
      vertex -20.4277 -14.8416 24
    endloop
  endfacet
  facet normal -0 0 1
    outer loop
      vertex -24.6982 5.24977 24
      vertex -23.067 -10.2701 24
      vertex -23.067 10.2701 24
    endloop
  endfacet
  facet normal 0 0 1
    outer loop
      vertex -24.6982 5.24977 24
      vertex -24.6982 -5.24977 24
      vertex -23.067 -10.2701 24
    endloop
  endfacet
  facet normal 0 -0 1
    outer loop
      vertex -24.6982 -5.24977 24
      vertex -24.6982 5.24977 24
      vertex -25.25 0 24
    endloop
  endfacet
  facet normal -0.587785 0.809017 0
    outer loop
      vertex -12.625 21.8671 5
      vertex -16.8955 18.7644 24
      vertex -12.625 21.8671 24
    endloop
  endfacet
  facet normal -0.587785 0.809017 0
    outer loop
      vertex -16.8955 18.7644 24
      vertex -12.625 21.8671 5
      vertex -16.8955 18.7644 5
    endloop
  endfacet
  facet normal -0.207912 0.978148 0
    outer loop
      vertex -2.63934 25.1117 5
      vertex -7.80268 24.0142 24
      vertex -2.63934 25.1117 24
    endloop
  endfacet
  facet normal -0.207912 0.978148 0
    outer loop
      vertex -7.80268 24.0142 24
      vertex -2.63934 25.1117 5
      vertex -7.80268 24.0142 5
    endloop
  endfacet
  facet normal 0.994522 -0.104528 0
    outer loop
      vertex 24.6982 -5.24977 24
      vertex 25.25 0 5
      vertex 25.25 0 24
    endloop
  endfacet
  facet normal 0.994522 -0.104528 0
    outer loop
      vertex 25.25 0 5
      vertex 24.6982 -5.24977 24
      vertex 24.6982 -5.24977 5
    endloop
  endfacet
  facet normal 0 0 -1
    outer loop
      vertex 27.2414 -5.79034 0
      vertex 27.2414 5.79034 0
      vertex 27.85 0 0
    endloop
  endfacet
  facet normal 0 0 -1
    outer loop
      vertex 25.4422 -11.3276 0
      vertex 27.2414 5.79034 0
      vertex 27.2414 -5.79034 0
    endloop
  endfacet
  facet normal 0 0 -1
    outer loop
      vertex 25.4422 -11.3276 0
      vertex 25.4422 11.3276 0
      vertex 27.2414 5.79034 0
    endloop
  endfacet
  facet normal 0 0 -1
    outer loop
      vertex 22.5311 -16.3698 0
      vertex 25.4422 11.3276 0
      vertex 25.4422 -11.3276 0
    endloop
  endfacet
  facet normal 0 0 -1
    outer loop
      vertex 22.5311 -16.3698 0
      vertex 22.5311 16.3698 0
      vertex 25.4422 11.3276 0
    endloop
  endfacet
  facet normal 0 0 -1
    outer loop
      vertex 18.6353 -20.6966 0
      vertex 22.5311 16.3698 0
      vertex 22.5311 -16.3698 0
    endloop
  endfacet
  facet normal 0 0 -1
    outer loop
      vertex 18.6353 -20.6966 0
      vertex 18.6353 20.6966 0
      vertex 22.5311 16.3698 0
    endloop
  endfacet
  facet normal 0 0 -1
    outer loop
      vertex 13.925 -24.1188 0
      vertex 18.6353 20.6966 0
      vertex 18.6353 -20.6966 0
    endloop
  endfacet
  facet normal 0 0 -1
    outer loop
      vertex 13.925 -24.1188 0
      vertex 13.925 24.1188 0
      vertex 18.6353 20.6966 0
    endloop
  endfacet
  facet normal 0 0 -1
    outer loop
      vertex 8.60612 -26.4869 0
      vertex 13.925 24.1188 0
      vertex 13.925 -24.1188 0
    endloop
  endfacet
  facet normal 0 0 -1
    outer loop
      vertex 8.60612 -26.4869 0
      vertex 8.60612 26.4869 0
      vertex 13.925 24.1188 0
    endloop
  endfacet
  facet normal 0 0 -1
    outer loop
      vertex 2.91112 -27.6974 0
      vertex 8.60612 26.4869 0
      vertex 8.60612 -26.4869 0
    endloop
  endfacet
  facet normal 0 0 -1
    outer loop
      vertex 2.91112 -27.6974 0
      vertex 2.91112 27.6974 0
      vertex 8.60612 26.4869 0
    endloop
  endfacet
  facet normal 0 0 -1
    outer loop
      vertex -2.91112 -27.6974 0
      vertex 2.91112 27.6974 0
      vertex 2.91112 -27.6974 0
    endloop
  endfacet
  facet normal 0 0 -1
    outer loop
      vertex -2.91112 -27.6974 0
      vertex -2.91112 27.6974 0
      vertex 2.91112 27.6974 0
    endloop
  endfacet
  facet normal 0 0 -1
    outer loop
      vertex -8.60612 -26.4869 0
      vertex -2.91112 27.6974 0
      vertex -2.91112 -27.6974 0
    endloop
  endfacet
  facet normal 0 0 -1
    outer loop
      vertex -8.60612 -26.4869 0
      vertex -8.60612 26.4869 0
      vertex -2.91112 27.6974 0
    endloop
  endfacet
  facet normal 0 0 -1
    outer loop
      vertex -13.925 -24.1188 0
      vertex -8.60612 26.4869 0
      vertex -8.60612 -26.4869 0
    endloop
  endfacet
  facet normal 0 0 -1
    outer loop
      vertex -13.925 -24.1188 0
      vertex -13.925 24.1188 0
      vertex -8.60612 26.4869 0
    endloop
  endfacet
  facet normal 0 0 -1
    outer loop
      vertex -18.6353 -20.6966 0
      vertex -13.925 24.1188 0
      vertex -13.925 -24.1188 0
    endloop
  endfacet
  facet normal 0 0 -1
    outer loop
      vertex -18.6353 -20.6966 0
      vertex -18.6353 20.6966 0
      vertex -13.925 24.1188 0
    endloop
  endfacet
  facet normal 0 0 -1
    outer loop
      vertex -22.5311 -16.3698 0
      vertex -18.6353 20.6966 0
      vertex -18.6353 -20.6966 0
    endloop
  endfacet
  facet normal 0 0 -1
    outer loop
      vertex -22.5311 -16.3698 0
      vertex -22.5311 16.3698 0
      vertex -18.6353 20.6966 0
    endloop
  endfacet
  facet normal 0 0 -1
    outer loop
      vertex -25.4422 -11.3276 0
      vertex -22.5311 16.3698 0
      vertex -22.5311 -16.3698 0
    endloop
  endfacet
  facet normal 0 0 -1
    outer loop
      vertex -25.4422 -11.3276 0
      vertex -25.4422 11.3276 0
      vertex -22.5311 16.3698 0
    endloop
  endfacet
  facet normal 0 0 -1
    outer loop
      vertex -27.2414 -5.79034 0
      vertex -25.4422 11.3276 0
      vertex -25.4422 -11.3276 0
    endloop
  endfacet
  facet normal 0 0 -1
    outer loop
      vertex -27.2414 -5.79034 0
      vertex -27.2414 5.79034 0
      vertex -25.4422 11.3276 0
    endloop
  endfacet
  facet normal 0 -0 -1
    outer loop
      vertex -27.2414 5.79034 0
      vertex -27.2414 -5.79034 0
      vertex -27.85 0 0
    endloop
  endfacet
  facet normal 0.207912 -0.978148 0
    outer loop
      vertex 2.63934 -25.1117 5
      vertex 7.80268 -24.0142 24
      vertex 2.63934 -25.1117 24
    endloop
  endfacet
  facet normal 0.207912 -0.978148 0
    outer loop
      vertex 7.80268 -24.0142 24
      vertex 2.63934 -25.1117 5
      vertex 7.80268 -24.0142 5
    endloop
  endfacet
  facet normal 0.866025 -0.5 0
    outer loop
      vertex 20.4277 -14.8416 24
      vertex 23.067 -10.2701 5
      vertex 23.067 -10.2701 24
    endloop
  endfacet
  facet normal 0.866025 -0.5 0
    outer loop
      vertex 23.067 -10.2701 5
      vertex 20.4277 -14.8416 24
      vertex 20.4277 -14.8416 5
    endloop
  endfacet
  facet normal -0.866025 -0.5 0
    outer loop
      vertex -20.4277 -14.8416 5
      vertex -23.067 -10.2701 24
      vertex -23.067 -10.2701 5
    endloop
  endfacet
  facet normal -0.866025 -0.5 0
    outer loop
      vertex -23.067 -10.2701 24
      vertex -20.4277 -14.8416 5
      vertex -20.4277 -14.8416 24
    endloop
  endfacet
  facet normal 0.587786 -0.809017 0
    outer loop
      vertex 12.625 -21.8671 5
      vertex 16.8955 -18.7644 24
      vertex 12.625 -21.8671 24
    endloop
  endfacet
  facet normal 0.587786 -0.809017 0
    outer loop
      vertex 16.8955 -18.7644 24
      vertex 12.625 -21.8671 5
      vertex 16.8955 -18.7644 5
    endloop
  endfacet
  facet normal 0.406736 -0.913546 0
    outer loop
      vertex 7.80268 -24.0142 5
      vertex 12.625 -21.8671 24
      vertex 7.80268 -24.0142 24
    endloop
  endfacet
  facet normal 0.406736 -0.913546 0
    outer loop
      vertex 12.625 -21.8671 24
      vertex 7.80268 -24.0142 5
      vertex 12.625 -21.8671 5
    endloop
  endfacet
  facet normal -0.207912 -0.978148 0
    outer loop
      vertex -7.80268 -24.0142 5
      vertex -2.63934 -25.1117 24
      vertex -7.80268 -24.0142 24
    endloop
  endfacet
  facet normal -0.207912 -0.978148 -0
    outer loop
      vertex -2.63934 -25.1117 24
      vertex -7.80268 -24.0142 5
      vertex -2.63934 -25.1117 5
    endloop
  endfacet
  facet normal -0.743145 -0.669131 0
    outer loop
      vertex -16.8955 -18.7644 5
      vertex -20.4277 -14.8416 24
      vertex -20.4277 -14.8416 5
    endloop
  endfacet
  facet normal -0.743145 -0.669131 0
    outer loop
      vertex -20.4277 -14.8416 24
      vertex -16.8955 -18.7644 5
      vertex -16.8955 -18.7644 24
    endloop
  endfacet
  facet normal -0.951056 -0.309017 0
    outer loop
      vertex -23.067 -10.2701 5
      vertex -24.6982 -5.24977 24
      vertex -24.6982 -5.24977 5
    endloop
  endfacet
  facet normal -0.951056 -0.309017 0
    outer loop
      vertex -24.6982 -5.24977 24
      vertex -23.067 -10.2701 5
      vertex -23.067 -10.2701 24
    endloop
  endfacet
  facet normal -0.994522 -0.104528 0
    outer loop
      vertex -24.6982 -5.24977 5
      vertex -25.25 0 24
      vertex -25.25 0 5
    endloop
  endfacet
  facet normal -0.994522 -0.104528 0
    outer loop
      vertex -25.25 0 24
      vertex -24.6982 -5.24977 5
      vertex -24.6982 -5.24977 24
    endloop
  endfacet
  facet normal 0.743145 -0.669131 0
    outer loop
      vertex 16.8955 -18.7644 24
      vertex 20.4277 -14.8416 5
      vertex 20.4277 -14.8416 24
    endloop
  endfacet
  facet normal 0.743145 -0.669131 0
    outer loop
      vertex 20.4277 -14.8416 5
      vertex 16.8955 -18.7644 24
      vertex 16.8955 -18.7644 5
    endloop
  endfacet
  facet normal -0.406736 -0.913546 0
    outer loop
      vertex -12.625 -21.8671 5
      vertex -7.80268 -24.0142 24
      vertex -12.625 -21.8671 24
    endloop
  endfacet
  facet normal -0.406736 -0.913546 -0
    outer loop
      vertex -7.80268 -24.0142 24
      vertex -12.625 -21.8671 5
      vertex -7.80268 -24.0142 5
    endloop
  endfacet
  facet normal -0.587786 -0.809017 0
    outer loop
      vertex -16.8955 -18.7644 5
      vertex -12.625 -21.8671 24
      vertex -16.8955 -18.7644 24
    endloop
  endfacet
  facet normal -0.587786 -0.809017 -0
    outer loop
      vertex -12.625 -21.8671 24
      vertex -16.8955 -18.7644 5
      vertex -12.625 -21.8671 5
    endloop
  endfacet
  facet normal 0.994522 0.104528 0
    outer loop
      vertex 27.85 0 5
      vertex 27.2414 5.79034 0
      vertex 27.2414 5.79034 5
    endloop
  endfacet
  facet normal 0.994522 0.104528 0
    outer loop
      vertex 27.2414 5.79034 0
      vertex 27.85 0 5
      vertex 27.85 0 0
    endloop
  endfacet
  facet normal -0.994522 0.104528 0
    outer loop
      vertex -27.85 0 0
      vertex -27.2414 5.79034 5
      vertex -27.2414 5.79034 0
    endloop
  endfacet
  facet normal -0.994522 0.104528 0
    outer loop
      vertex -27.2414 5.79034 5
      vertex -27.85 0 0
      vertex -27.85 0 5
    endloop
  endfacet
  facet normal 0 1 -0
    outer loop
      vertex 2.91112 27.6974 0
      vertex -2.91112 27.6974 5
      vertex 2.91112 27.6974 5
    endloop
  endfacet
  facet normal 0 1 0
    outer loop
      vertex -2.91112 27.6974 5
      vertex 2.91112 27.6974 0
      vertex -2.91112 27.6974 0
    endloop
  endfacet
  facet normal 0 -1 0
    outer loop
      vertex -2.91112 -27.6974 0
      vertex 2.91112 -27.6974 5
      vertex -2.91112 -27.6974 5
    endloop
  endfacet
  facet normal 0 -1 -0
    outer loop
      vertex 2.91112 -27.6974 5
      vertex -2.91112 -27.6974 0
      vertex 2.91112 -27.6974 0
    endloop
  endfacet
  facet normal 0.743145 0.669131 0
    outer loop
      vertex 22.5311 16.3698 5
      vertex 18.6353 20.6966 0
      vertex 18.6353 20.6966 5
    endloop
  endfacet
  facet normal 0.743145 0.669131 0
    outer loop
      vertex 18.6353 20.6966 0
      vertex 22.5311 16.3698 5
      vertex 22.5311 16.3698 0
    endloop
  endfacet
  facet normal -0.587785 0.809017 0
    outer loop
      vertex -13.925 24.1188 0
      vertex -18.6353 20.6966 5
      vertex -13.925 24.1188 5
    endloop
  endfacet
  facet normal -0.587785 0.809017 0
    outer loop
      vertex -18.6353 20.6966 5
      vertex -13.925 24.1188 0
      vertex -18.6353 20.6966 0
    endloop
  endfacet
  facet normal -0.207912 0.978148 0
    outer loop
      vertex -2.91112 27.6974 0
      vertex -8.60612 26.4869 5
      vertex -2.91112 27.6974 5
    endloop
  endfacet
  facet normal -0.207912 0.978148 0
    outer loop
      vertex -8.60612 26.4869 5
      vertex -2.91112 27.6974 0
      vertex -8.60612 26.4869 0
    endloop
  endfacet
  facet normal 0.866025 -0.5 0
    outer loop
      vertex 22.5311 -16.3698 5
      vertex 25.4422 -11.3276 0
      vertex 25.4422 -11.3276 5
    endloop
  endfacet
  facet normal 0.866025 -0.5 0
    outer loop
      vertex 25.4422 -11.3276 0
      vertex 22.5311 -16.3698 5
      vertex 22.5311 -16.3698 0
    endloop
  endfacet
  facet normal 0.866025 0.5 0
    outer loop
      vertex 25.4422 11.3276 5
      vertex 22.5311 16.3698 0
      vertex 22.5311 16.3698 5
    endloop
  endfacet
  facet normal 0.866025 0.5 0
    outer loop
      vertex 22.5311 16.3698 0
      vertex 25.4422 11.3276 5
      vertex 25.4422 11.3276 0
    endloop
  endfacet
  facet normal 0.951057 0.309017 0
    outer loop
      vertex 27.2414 5.79034 5
      vertex 25.4422 11.3276 0
      vertex 25.4422 11.3276 5
    endloop
  endfacet
  facet normal 0.951057 0.309017 0
    outer loop
      vertex 25.4422 11.3276 0
      vertex 27.2414 5.79034 5
      vertex 27.2414 5.79034 0
    endloop
  endfacet
  facet normal 0.406737 0.913545 -0
    outer loop
      vertex 13.925 24.1188 0
      vertex 8.60612 26.4869 5
      vertex 13.925 24.1188 5
    endloop
  endfacet
  facet normal 0.406737 0.913545 0
    outer loop
      vertex 8.60612 26.4869 5
      vertex 13.925 24.1188 0
      vertex 8.60612 26.4869 0
    endloop
  endfacet
  facet normal 0.207912 0.978148 -0
    outer loop
      vertex 8.60612 26.4869 0
      vertex 2.91112 27.6974 5
      vertex 8.60612 26.4869 5
    endloop
  endfacet
  facet normal 0.207912 0.978148 0
    outer loop
      vertex 2.91112 27.6974 5
      vertex 8.60612 26.4869 0
      vertex 2.91112 27.6974 0
    endloop
  endfacet
  facet normal 0.587785 0.809017 -0
    outer loop
      vertex 18.6353 20.6966 0
      vertex 13.925 24.1188 5
      vertex 18.6353 20.6966 5
    endloop
  endfacet
  facet normal 0.587785 0.809017 0
    outer loop
      vertex 13.925 24.1188 5
      vertex 18.6353 20.6966 0
      vertex 13.925 24.1188 0
    endloop
  endfacet
  facet normal -0.866025 0.5 0
    outer loop
      vertex -25.4422 11.3276 0
      vertex -22.5311 16.3698 5
      vertex -22.5311 16.3698 0
    endloop
  endfacet
  facet normal -0.866025 0.5 0
    outer loop
      vertex -22.5311 16.3698 5
      vertex -25.4422 11.3276 0
      vertex -25.4422 11.3276 5
    endloop
  endfacet
  facet normal -0.743145 0.669131 0
    outer loop
      vertex -22.5311 16.3698 0
      vertex -18.6353 20.6966 5
      vertex -18.6353 20.6966 0
    endloop
  endfacet
  facet normal -0.743145 0.669131 0
    outer loop
      vertex -18.6353 20.6966 5
      vertex -22.5311 16.3698 0
      vertex -22.5311 16.3698 5
    endloop
  endfacet
  facet normal -0.951057 0.309017 0
    outer loop
      vertex -27.2414 5.79034 0
      vertex -25.4422 11.3276 5
      vertex -25.4422 11.3276 0
    endloop
  endfacet
  facet normal -0.951057 0.309017 0
    outer loop
      vertex -25.4422 11.3276 5
      vertex -27.2414 5.79034 0
      vertex -27.2414 5.79034 5
    endloop
  endfacet
  facet normal 0 0 1
    outer loop
      vertex 25.25 0 5
      vertex 27.85 0 5
      vertex 27.2414 5.79034 5
    endloop
  endfacet
  facet normal 0 0 1
    outer loop
      vertex 24.6982 5.24977 5
      vertex 27.2414 5.79034 5
      vertex 25.4422 11.3276 5
    endloop
  endfacet
  facet normal 0 0 1
    outer loop
      vertex 27.85 0 5
      vertex 25.25 0 5
      vertex 27.2414 -5.79034 5
    endloop
  endfacet
  facet normal -0 0 1
    outer loop
      vertex 24.6982 -5.24977 5
      vertex 27.2414 -5.79034 5
      vertex 25.25 0 5
    endloop
  endfacet
  facet normal 0 0 1
    outer loop
      vertex 27.2414 5.79034 5
      vertex 24.6982 5.24977 5
      vertex 25.25 0 5
    endloop
  endfacet
  facet normal 0 0 1
    outer loop
      vertex 25.4422 11.3276 5
      vertex 23.067 10.2701 5
      vertex 24.6982 5.24977 5
    endloop
  endfacet
  facet normal 0 0 1
    outer loop
      vertex 22.5311 16.3698 5
      vertex 23.067 10.2701 5
      vertex 25.4422 11.3276 5
    endloop
  endfacet
  facet normal 0 0 1
    outer loop
      vertex 22.5311 16.3698 5
      vertex 20.4277 14.8416 5
      vertex 23.067 10.2701 5
    endloop
  endfacet
  facet normal 0 0 1
    outer loop
      vertex 18.6353 20.6966 5
      vertex 20.4277 14.8416 5
      vertex 22.5311 16.3698 5
    endloop
  endfacet
  facet normal 0 0 1
    outer loop
      vertex 18.6353 20.6966 5
      vertex 16.8955 18.7644 5
      vertex 20.4277 14.8416 5
    endloop
  endfacet
  facet normal 0 0 1
    outer loop
      vertex 13.925 24.1188 5
      vertex 16.8955 18.7644 5
      vertex 18.6353 20.6966 5
    endloop
  endfacet
  facet normal 0 0 1
    outer loop
      vertex 13.925 24.1188 5
      vertex 12.625 21.8671 5
      vertex 16.8955 18.7644 5
    endloop
  endfacet
  facet normal 0 0 1
    outer loop
      vertex 8.60612 26.4869 5
      vertex 12.625 21.8671 5
      vertex 13.925 24.1188 5
    endloop
  endfacet
  facet normal 0 0 1
    outer loop
      vertex 8.60612 26.4869 5
      vertex 7.80268 24.0142 5
      vertex 12.625 21.8671 5
    endloop
  endfacet
  facet normal 0 0 1
    outer loop
      vertex 2.91112 27.6974 5
      vertex 7.80268 24.0142 5
      vertex 8.60612 26.4869 5
    endloop
  endfacet
  facet normal 0 0 1
    outer loop
      vertex 2.91112 27.6974 5
      vertex 2.63934 25.1117 5
      vertex 7.80268 24.0142 5
    endloop
  endfacet
  facet normal 0 0 1
    outer loop
      vertex 2.91112 27.6974 5
      vertex -2.63934 25.1117 5
      vertex 2.63934 25.1117 5
    endloop
  endfacet
  facet normal -0 0 1
    outer loop
      vertex -2.91112 27.6974 5
      vertex -2.63934 25.1117 5
      vertex 2.91112 27.6974 5
    endloop
  endfacet
  facet normal 0 0 1
    outer loop
      vertex -2.91112 27.6974 5
      vertex -7.80268 24.0142 5
      vertex -2.63934 25.1117 5
    endloop
  endfacet
  facet normal -0 0 1
    outer loop
      vertex -8.60612 26.4869 5
      vertex -7.80268 24.0142 5
      vertex -2.91112 27.6974 5
    endloop
  endfacet
  facet normal 0 0 1
    outer loop
      vertex -8.60612 26.4869 5
      vertex -12.625 21.8671 5
      vertex -7.80268 24.0142 5
    endloop
  endfacet
  facet normal -0 0 1
    outer loop
      vertex -13.925 24.1188 5
      vertex -12.625 21.8671 5
      vertex -8.60612 26.4869 5
    endloop
  endfacet
  facet normal 0 0 1
    outer loop
      vertex -13.925 24.1188 5
      vertex -16.8955 18.7644 5
      vertex -12.625 21.8671 5
    endloop
  endfacet
  facet normal -0 0 1
    outer loop
      vertex -18.6353 20.6966 5
      vertex -16.8955 18.7644 5
      vertex -13.925 24.1188 5
    endloop
  endfacet
  facet normal 0 0 1
    outer loop
      vertex -18.6353 20.6966 5
      vertex -20.4277 14.8416 5
      vertex -16.8955 18.7644 5
    endloop
  endfacet
  facet normal -0 0 1
    outer loop
      vertex -22.5311 16.3698 5
      vertex -20.4277 14.8416 5
      vertex -18.6353 20.6966 5
    endloop
  endfacet
  facet normal 0 0 1
    outer loop
      vertex -22.5311 16.3698 5
      vertex -23.067 10.2701 5
      vertex -20.4277 14.8416 5
    endloop
  endfacet
  facet normal -0 0 1
    outer loop
      vertex -25.4422 11.3276 5
      vertex -23.067 10.2701 5
      vertex -22.5311 16.3698 5
    endloop
  endfacet
  facet normal -0 0 1
    outer loop
      vertex -27.2414 5.79034 5
      vertex -24.6982 5.24977 5
      vertex -25.4422 11.3276 5
    endloop
  endfacet
  facet normal 0 0 1
    outer loop
      vertex -23.067 10.2701 5
      vertex -25.4422 11.3276 5
      vertex -24.6982 5.24977 5
    endloop
  endfacet
  facet normal 0 0 1
    outer loop
      vertex 27.2414 -5.79034 5
      vertex 24.6982 -5.24977 5
      vertex 25.4422 -11.3276 5
    endloop
  endfacet
  facet normal -0 0 1
    outer loop
      vertex 23.067 -10.2701 5
      vertex 25.4422 -11.3276 5
      vertex 24.6982 -5.24977 5
    endloop
  endfacet
  facet normal 0 0 1
    outer loop
      vertex 23.067 -10.2701 5
      vertex 22.5311 -16.3698 5
      vertex 25.4422 -11.3276 5
    endloop
  endfacet
  facet normal -0 0 1
    outer loop
      vertex 20.4277 -14.8416 5
      vertex 22.5311 -16.3698 5
      vertex 23.067 -10.2701 5
    endloop
  endfacet
  facet normal 0 0 1
    outer loop
      vertex 20.4277 -14.8416 5
      vertex 18.6353 -20.6966 5
      vertex 22.5311 -16.3698 5
    endloop
  endfacet
  facet normal -0 0 1
    outer loop
      vertex 16.8955 -18.7644 5
      vertex 18.6353 -20.6966 5
      vertex 20.4277 -14.8416 5
    endloop
  endfacet
  facet normal 0 0 1
    outer loop
      vertex 16.8955 -18.7644 5
      vertex 13.925 -24.1188 5
      vertex 18.6353 -20.6966 5
    endloop
  endfacet
  facet normal -0 0 1
    outer loop
      vertex 12.625 -21.8671 5
      vertex 13.925 -24.1188 5
      vertex 16.8955 -18.7644 5
    endloop
  endfacet
  facet normal 0 0 1
    outer loop
      vertex 12.625 -21.8671 5
      vertex 8.60612 -26.4869 5
      vertex 13.925 -24.1188 5
    endloop
  endfacet
  facet normal -0 0 1
    outer loop
      vertex 7.80268 -24.0142 5
      vertex 8.60612 -26.4869 5
      vertex 12.625 -21.8671 5
    endloop
  endfacet
  facet normal 0 0 1
    outer loop
      vertex 7.80268 -24.0142 5
      vertex 2.91112 -27.6974 5
      vertex 8.60612 -26.4869 5
    endloop
  endfacet
  facet normal -0 0 1
    outer loop
      vertex 2.63934 -25.1117 5
      vertex 2.91112 -27.6974 5
      vertex 7.80268 -24.0142 5
    endloop
  endfacet
  facet normal -0 0 1
    outer loop
      vertex -2.63934 -25.1117 5
      vertex 2.91112 -27.6974 5
      vertex 2.63934 -25.1117 5
    endloop
  endfacet
  facet normal 0 0 1
    outer loop
      vertex -2.63934 -25.1117 5
      vertex -2.91112 -27.6974 5
      vertex 2.91112 -27.6974 5
    endloop
  endfacet
  facet normal 0 0 1
    outer loop
      vertex -7.80268 -24.0142 5
      vertex -2.91112 -27.6974 5
      vertex -2.63934 -25.1117 5
    endloop
  endfacet
  facet normal 0 0 1
    outer loop
      vertex -7.80268 -24.0142 5
      vertex -8.60612 -26.4869 5
      vertex -2.91112 -27.6974 5
    endloop
  endfacet
  facet normal 0 0 1
    outer loop
      vertex -12.625 -21.8671 5
      vertex -8.60612 -26.4869 5
      vertex -7.80268 -24.0142 5
    endloop
  endfacet
  facet normal 0 0 1
    outer loop
      vertex -12.625 -21.8671 5
      vertex -13.925 -24.1188 5
      vertex -8.60612 -26.4869 5
    endloop
  endfacet
  facet normal 0 0 1
    outer loop
      vertex -16.8955 -18.7644 5
      vertex -13.925 -24.1188 5
      vertex -12.625 -21.8671 5
    endloop
  endfacet
  facet normal 0 0 1
    outer loop
      vertex -16.8955 -18.7644 5
      vertex -18.6353 -20.6966 5
      vertex -13.925 -24.1188 5
    endloop
  endfacet
  facet normal 0 0 1
    outer loop
      vertex -20.4277 -14.8416 5
      vertex -18.6353 -20.6966 5
      vertex -16.8955 -18.7644 5
    endloop
  endfacet
  facet normal 0 0 1
    outer loop
      vertex -20.4277 -14.8416 5
      vertex -22.5311 -16.3698 5
      vertex -18.6353 -20.6966 5
    endloop
  endfacet
  facet normal 0 0 1
    outer loop
      vertex -23.067 -10.2701 5
      vertex -22.5311 -16.3698 5
      vertex -20.4277 -14.8416 5
    endloop
  endfacet
  facet normal 0 0 1
    outer loop
      vertex -25.4422 -11.3276 5
      vertex -23.067 -10.2701 5
      vertex -24.6982 -5.24977 5
    endloop
  endfacet
  facet normal 0 0 1
    outer loop
      vertex -23.067 -10.2701 5
      vertex -25.4422 -11.3276 5
      vertex -22.5311 -16.3698 5
    endloop
  endfacet
  facet normal 0 0 1
    outer loop
      vertex -27.2414 -5.79034 5
      vertex -24.6982 -5.24977 5
      vertex -25.25 0 5
    endloop
  endfacet
  facet normal 0 0 1
    outer loop
      vertex -24.6982 5.24977 5
      vertex -27.2414 5.79034 5
      vertex -25.25 0 5
    endloop
  endfacet
  facet normal 0 0 1
    outer loop
      vertex -27.85 0 5
      vertex -25.25 0 5
      vertex -27.2414 5.79034 5
    endloop
  endfacet
  facet normal 0 0 1
    outer loop
      vertex -24.6982 -5.24977 5
      vertex -27.2414 -5.79034 5
      vertex -25.4422 -11.3276 5
    endloop
  endfacet
  facet normal 0 0 1
    outer loop
      vertex -25.25 0 5
      vertex -27.85 0 5
      vertex -27.2414 -5.79034 5
    endloop
  endfacet
  facet normal -0.406737 0.913545 0
    outer loop
      vertex -8.60612 26.4869 0
      vertex -13.925 24.1188 5
      vertex -8.60612 26.4869 5
    endloop
  endfacet
  facet normal -0.406737 0.913545 0
    outer loop
      vertex -13.925 24.1188 5
      vertex -8.60612 26.4869 0
      vertex -13.925 24.1188 0
    endloop
  endfacet
  facet normal 0.994522 -0.104528 0
    outer loop
      vertex 27.2414 -5.79034 5
      vertex 27.85 0 0
      vertex 27.85 0 5
    endloop
  endfacet
  facet normal 0.994522 -0.104528 0
    outer loop
      vertex 27.85 0 0
      vertex 27.2414 -5.79034 5
      vertex 27.2414 -5.79034 0
    endloop
  endfacet
  facet normal 0.587785 -0.809017 0
    outer loop
      vertex 13.925 -24.1188 0
      vertex 18.6353 -20.6966 5
      vertex 13.925 -24.1188 5
    endloop
  endfacet
  facet normal 0.587785 -0.809017 0
    outer loop
      vertex 18.6353 -20.6966 5
      vertex 13.925 -24.1188 0
      vertex 18.6353 -20.6966 0
    endloop
  endfacet
  facet normal 0.743145 -0.669131 0
    outer loop
      vertex 18.6353 -20.6966 5
      vertex 22.5311 -16.3698 0
      vertex 22.5311 -16.3698 5
    endloop
  endfacet
  facet normal 0.743145 -0.669131 0
    outer loop
      vertex 22.5311 -16.3698 0
      vertex 18.6353 -20.6966 5
      vertex 18.6353 -20.6966 0
    endloop
  endfacet
  facet normal 0.951057 -0.309017 0
    outer loop
      vertex 25.4422 -11.3276 5
      vertex 27.2414 -5.79034 0
      vertex 27.2414 -5.79034 5
    endloop
  endfacet
  facet normal 0.951057 -0.309017 0
    outer loop
      vertex 27.2414 -5.79034 0
      vertex 25.4422 -11.3276 5
      vertex 25.4422 -11.3276 0
    endloop
  endfacet
  facet normal -0.587785 -0.809017 0
    outer loop
      vertex -18.6353 -20.6966 0
      vertex -13.925 -24.1188 5
      vertex -18.6353 -20.6966 5
    endloop
  endfacet
  facet normal -0.587785 -0.809017 -0
    outer loop
      vertex -13.925 -24.1188 5
      vertex -18.6353 -20.6966 0
      vertex -13.925 -24.1188 0
    endloop
  endfacet
  facet normal -0.866025 -0.5 0
    outer loop
      vertex -22.5311 -16.3698 0
      vertex -25.4422 -11.3276 5
      vertex -25.4422 -11.3276 0
    endloop
  endfacet
  facet normal -0.866025 -0.5 0
    outer loop
      vertex -25.4422 -11.3276 5
      vertex -22.5311 -16.3698 0
      vertex -22.5311 -16.3698 5
    endloop
  endfacet
  facet normal -0.743145 -0.669131 0
    outer loop
      vertex -18.6353 -20.6966 0
      vertex -22.5311 -16.3698 5
      vertex -22.5311 -16.3698 0
    endloop
  endfacet
  facet normal -0.743145 -0.669131 0
    outer loop
      vertex -22.5311 -16.3698 5
      vertex -18.6353 -20.6966 0
      vertex -18.6353 -20.6966 5
    endloop
  endfacet
  facet normal -0.207912 -0.978148 0
    outer loop
      vertex -8.60612 -26.4869 0
      vertex -2.91112 -27.6974 5
      vertex -8.60612 -26.4869 5
    endloop
  endfacet
  facet normal -0.207912 -0.978148 -0
    outer loop
      vertex -2.91112 -27.6974 5
      vertex -8.60612 -26.4869 0
      vertex -2.91112 -27.6974 0
    endloop
  endfacet
  facet normal -0.951057 -0.309017 0
    outer loop
      vertex -25.4422 -11.3276 0
      vertex -27.2414 -5.79034 5
      vertex -27.2414 -5.79034 0
    endloop
  endfacet
  facet normal -0.951057 -0.309017 0
    outer loop
      vertex -27.2414 -5.79034 5
      vertex -25.4422 -11.3276 0
      vertex -25.4422 -11.3276 5
    endloop
  endfacet
  facet normal -0.994522 -0.104528 0
    outer loop
      vertex -27.2414 -5.79034 0
      vertex -27.85 0 5
      vertex -27.85 0 0
    endloop
  endfacet
  facet normal -0.994522 -0.104528 0
    outer loop
      vertex -27.85 0 5
      vertex -27.2414 -5.79034 0
      vertex -27.2414 -5.79034 5
    endloop
  endfacet
  facet normal 0.406737 -0.913545 0
    outer loop
      vertex 8.60612 -26.4869 0
      vertex 13.925 -24.1188 5
      vertex 8.60612 -26.4869 5
    endloop
  endfacet
  facet normal 0.406737 -0.913545 0
    outer loop
      vertex 13.925 -24.1188 5
      vertex 8.60612 -26.4869 0
      vertex 13.925 -24.1188 0
    endloop
  endfacet
  facet normal 0.207912 -0.978148 0
    outer loop
      vertex 2.91112 -27.6974 0
      vertex 8.60612 -26.4869 5
      vertex 2.91112 -27.6974 5
    endloop
  endfacet
  facet normal 0.207912 -0.978148 0
    outer loop
      vertex 8.60612 -26.4869 5
      vertex 2.91112 -27.6974 0
      vertex 8.60612 -26.4869 0
    endloop
  endfacet
  facet normal -0.406737 -0.913545 0
    outer loop
      vertex -13.925 -24.1188 0
      vertex -8.60612 -26.4869 5
      vertex -13.925 -24.1188 5
    endloop
  endfacet
  facet normal -0.406737 -0.913545 -0
    outer loop
      vertex -8.60612 -26.4869 5
      vertex -13.925 -24.1188 0
      vertex -8.60612 -26.4869 0
    endloop
  endfacet
endsolid OpenSCAD_Model
